<?xml version="1.0" encoding="UTF-8" standalone="no"?>
<!-- Created with Inkscape (http://www.inkscape.org/) -->

<svg
   xmlns:dc="http://purl.org/dc/elements/1.1/"
   xmlns:cc="http://creativecommons.org/ns#"
   xmlns:rdf="http://www.w3.org/1999/02/22-rdf-syntax-ns#"
   xmlns:svg="http://www.w3.org/2000/svg"
   xmlns="http://www.w3.org/2000/svg"
   xmlns:sodipodi="http://sodipodi.sourceforge.net/DTD/sodipodi-0.dtd"
   xmlns:inkscape="http://www.inkscape.org/namespaces/inkscape"
   width="57"
   height="64"
   id="svg2993"
   version="1.1"
   inkscape:version="0.48.3.1 r9886"
   inkscape:export-filename="/home/georg/work/www/src/images/favicon.ico.png"
   inkscape:export-xdpi="90"
   inkscape:export-ydpi="90"
   sodipodi:docname="New document 3">
  <defs
     id="defs2995">
    <filter
       color-interpolation-filters="sRGB"
       id="f">
      <feGaussianBlur
         stdDeviation="12.375"
         id="feGaussianBlur3959" />
    </filter>
    <filter
       color-interpolation-filters="sRGB"
       id="f-4">
      <feGaussianBlur
         stdDeviation="12.375"
         id="feGaussianBlur3959-1" />
    </filter>
    <filter
       color-interpolation-filters="sRGB"
       id="f-8">
      <feGaussianBlur
         stdDeviation="12.375"
         id="feGaussianBlur3959-17" />
    </filter>
    <filter
       color-interpolation-filters="sRGB"
       id="f-3">
      <feGaussianBlur
         stdDeviation="12.375"
         id="feGaussianBlur3959-8" />
    </filter>
    <filter
       id="f-0">
      <feGaussianBlur
         id="feGaussianBlur4468"
         stdDeviation="12.375" />
    </filter>
    <path
       d="m 450,200 c 0,27.61424 -22.38576,50 -50,50 -27.61424,0 -50,-22.38576 -50,-50 0,-27.61424 22.38576,-50 50,-50 27.61424,0 50,22.38576 50,50 z"
       id="d" />
    <path
       d="m 425,25 c 110.4,0 200,89.6 200,200 0,110.4 -89.6,200 -200,200 -110.4,0 -200,89.6 -200,200 0,110.4 89.6,200 200,200 C 645.8,825 825,645.8 825,425 825,204.2 645.8,25 425,25 z m 0,537.5 c 34.5,0 62.5,28 62.5,62.5 0,34.5 -28,62.5 -62.5,62.5 -34.5,0 -62.5,-28 -62.5,-62.5 0,-34.5 28,-62.5 62.5,-62.5 z"
       id="y" />
  </defs>
  <sodipodi:namedview
     id="base"
     pagecolor="#ffffff"
     bordercolor="#666666"
     borderopacity="1.0"
     inkscape:pageopacity="0.0"
     inkscape:pageshadow="2"
     inkscape:zoom="7.7781746"
     inkscape:cx="69.451561"
     inkscape:cy="22.085918"
     inkscape:current-layer="g3871"
     showgrid="true"
     inkscape:document-units="px"
     inkscape:grid-bbox="true"
     inkscape:window-width="1920"
     inkscape:window-height="1056"
     inkscape:window-x="0"
     inkscape:window-y="24"
     inkscape:window-maximized="1" />
  <metadata
     id="metadata2998">
    <rdf:RDF>
      <cc:Work
         rdf:about="">
        <dc:format>image/svg+xml</dc:format>
        <dc:type
           rdf:resource="http://purl.org/dc/dcmitype/StillImage" />
        <dc:title></dc:title>
      </cc:Work>
    </rdf:RDF>
  </metadata>
  <g
     id="layer1"
     inkscape:label="Layer 1"
     inkscape:groupmode="layer">
    <g
       id="g3871"
       transform="matrix(0.80582387,0,0,0.89907853,-0.54486732,3.8907749)"
       style="stroke:#483737;stroke-width:2.77951241;stroke-miterlimit:4;stroke-opacity:1;stroke-dasharray:none">
      <path
         id="rect3771"
         style="fill:none;stroke:#486f37;stroke-width:2.77968669;stroke-miterlimit:4;stroke-opacity:1;stroke-dasharray:none"
         d="m 52.9975,26.628868 6.779145,0.03537 L 51.19786,19.965386 51.17151,8.056174 49.132771,6.4214729 49.024027,18.389294 34.525542,6.9465952 6.0988273,26.405342 14.996,26.344775 l -0.434743,29.14056 15.503918,-0.09703 0.0568,-16.112519 8.296854,0.03708 -0.03265,16.12141 14.96503,0.148096 z"
         inkscape:connector-curvature="0"
         sodipodi:nodetypes="cccccccccccccccc" />
      <path
         style="fill:#000000;fill-opacity:0;stroke:#486f37;stroke-width:2.77968669;stroke-linecap:butt;stroke-linejoin:miter;stroke-miterlimit:4;stroke-opacity:1;stroke-dasharray:none"
         d="m 29.55374,55.416778 c 3.297256,0 6.594512,0 9.891767,0"
         id="path4587"
         inkscape:connector-curvature="0" />
    </g>
  </g>
</svg>
